PathFileType	4	(X/Y/Z)	SUBJ94_1_walk_RCNL2025.trc
DataRate	CameraRate	NumFrames	NumMarkers	Units	OrigDataRate	OrigDataStartFrame	OrigNumFrames
100	100	5	25	mm	100	335	382
Frame#	Time	R_Shoulder			L_Shoulder			C7			J_Notch			R_Elbow			L_Elbow			R_Wrist			L_Wrist			R_Asis			L_Asis			Sacral			Thoracic			Sternum			R_Thigh_Lateral			R_Knee_Lateral			R_Shank_Lateral			R_Ankle_Lateral			R_Heel			R_Toe			L_Thigh_Lateral			L_Knee_Lateral			L_Shank_Lateral			L_Ankle_Lateral			L_Heel			L_Toe		
		X1	Y1	Z1	X2	Y2	Z2	X3	Y3	Z3	X4	Y4	Z4	X5	Y5	Z5	X6	Y6	Z6	X7	Y7	Z7	X8	Y8	Z8	X9	Y9	Z9	X10	Y10	Z10	X11	Y11	Z11	X12	Y12	Z12	X13	Y13	Z13	X14	Y14	Z14	X15	Y15	Z15	X16	Y16	Z16	X17	Y17	Z17	X18	Y18	Z18	X19	Y19	Z19	X20	Y20	Z20	X21	Y21	Z21	X22	Y22	Z22	X23	Y23	Z23	X24	Y24	Z24	X25	Y25	Z25
335	3.34000000	1157.540771	1277.416016	374.533966	1157.741943	1269.421387	-4.880976	1096.802368	1353.994019	179.090576	1214.078369	1265.994873	183.161621	1125.392212	1000.822510	472.031433	1088.950317	990.623108	-64.168655	1244.340454	807.114655	469.175415	1227.286194	806.320892	-89.073761	1212.261353	884.957520	323.052887	1235.128174	879.781799	97.849503	1034.831909	936.578064	182.823914	1038.231445	1149.772461	183.699936	1255.706787	1073.204590	203.530792	1220.229614	541.864807	398.972565	1242.514038	453.433594	348.721863	1128.405762	323.033295	380.598267	989.705688	176.697845	295.591919	961.317078	203.392029	243.145187	1073.322998	72.340370	275.014557	1189.333008	535.616333	15.532017	1179.923096	437.504272	75.209343	1170.614746	252.231750	22.831686	1138.529541	56.820091	131.700180	1094.988647	47.728703	178.496490	1261.116577	42.924332	162.087601
336	3.35000000	1167.737427	1277.645996	374.233002	1169.473511	1270.158081	-5.114331	1107.662109	1354.486084	178.686935	1224.867798	1266.326294	183.091675	1132.219971	1001.096985	470.930389	1104.289551	990.681946	-65.456833	1247.093384	804.904999	469.914474	1245.703430	808.580872	-89.104385	1223.072632	886.208130	322.223602	1245.622192	879.746399	97.145500	1045.548096	937.430725	182.059662	1048.994751	1150.250732	182.766464	1266.187866	1073.554565	203.403122	1238.005493	544.694580	398.070984	1262.243408	456.537262	347.625946	1153.545288	320.926086	380.281769	1020.313904	168.809845	296.067596	990.136902	193.817322	243.649323	1109.960815	69.701904	275.686035	1195.520386	535.368713	15.727286	1183.637939	437.286469	75.378700	1172.776978	252.133484	23.110548	1138.740356	57.011204	131.938583	1095.123169	48.070438	178.816772	1261.251587	42.819466	162.168961
337	3.36000000	1177.917236	1277.655640	373.916840	1181.152344	1270.698730	-5.374275	1118.517334	1354.774170	178.261917	1235.634644	1266.517212	182.955566	1138.994629	1001.228394	469.853363	1119.621216	990.594299	-66.744072	1249.815918	802.705109	470.770706	1264.138550	810.785339	-89.058907	1233.988159	887.108704	321.263397	1256.067261	879.504395	96.371185	1056.224854	938.015869	181.527664	1059.752075	1150.522827	181.849274	1276.679688	1073.765381	203.156036	1255.468140	547.294617	397.181427	1281.275879	459.397156	346.385132	1178.655151	318.339569	379.892120	1051.697144	160.238083	296.534882	1019.905945	183.394714	244.128769	1147.188599	66.770958	276.383270	1201.661133	535.012390	15.889280	1187.448730	437.037903	75.534386	1175.288940	252.034988	23.427868	1138.921631	57.181892	132.186264	1095.271851	48.431244	179.135696	1261.387695	42.720387	162.237961
338	3.37000000	1188.058105	1277.430786	373.600250	1192.787598	1271.020142	-5.659723	1129.384033	1354.846558	177.809891	1246.384399	1266.557739	182.756897	1145.738770	1001.196777	468.806458	1134.961060	990.350830	-68.039024	1252.550476	800.504425	471.737396	1282.584595	812.914856	-88.943436	1245.000977	887.647949	320.224731	1266.468994	879.026062	95.553177	1066.867920	938.303223	181.224396	1070.516113	1150.579590	180.958817	1287.203491	1073.821777	202.805389	1272.582520	549.609558	396.310394	1299.578735	461.960541	345.018280	1203.701416	315.345856	379.430237	1083.857544	151.163742	296.980347	1050.670898	172.298874	244.558319	1184.947266	63.703289	277.167389	1207.674805	534.545288	15.998002	1191.333618	436.758545	75.664001	1177.951416	251.927567	23.736650	1139.068970	57.336414	132.446671	1095.427856	48.802773	179.452942	1261.522583	42.629593	162.291260
339	3.38000000	1198.147461	1276.965454	373.295715	1204.390015	1271.107544	-5.965581	1140.281250	1354.687622	177.328934	1257.125244	1266.433350	182.504532	1152.476440	1000.991699	467.797424	1150.319092	989.947144	-69.344292	1255.336487	798.296417	472.807404	1301.024048	814.947876	-88.753510	1256.096313	887.827026	319.165527	1276.832642	878.303101	94.721100	1077.485840	938.279846	181.132568	1081.294189	1150.417847	180.107925	1297.772583	1073.704224	202.373291	1289.305054	551.586121	395.456482	1317.122803	464.178619	343.547729	1228.623535	312.029724	378.903046	1116.792236	141.765045	297.389740	1082.453125	160.718979	244.915848	1223.195312	60.663898	278.076233	1213.502686	533.980530	16.037964	1195.263550	436.452209	75.755493	1180.565796	251.807327	23.995052	1139.185303	57.485420	132.720734	1095.595459	49.185013	179.767975	1261.654419	42.549217	162.326675
